<svg xmlns="http://www.w3.org/2000/svg" xmlns:xlink="http://www.w3.org/1999/xlink" version="1.0" x="0" y="0" width="2400" height="2063.894503724341" viewBox="139.4 98.68534698486329 61.2 52.629309844970706" preserveAspectRatio="xMidYMid meet" color-interpolation-filters="sRGB"><g><defs><linearGradient id="92" x1="0%" y1="0%" x2="100%" y2="0%"><stop offset="0%" stop-color="#fa71cd"></stop> <stop offset="100%" stop-color="#9b59b6"></stop></linearGradient><linearGradient id="93" x1="0%" y1="0%" x2="100%" y2="0%"><stop offset="0%" stop-color="#f9d423"></stop> <stop offset="100%" stop-color="#f83600"></stop></linearGradient><linearGradient id="94" x1="0%" y1="0%" x2="100%" y2="0%"><stop offset="0%" stop-color="#0064d2"></stop> <stop offset="100%" stop-color="#1cb0f6"></stop></linearGradient><linearGradient id="95" x1="0%" y1="0%" x2="100%" y2="0%"><stop offset="0%" stop-color="#f00978"></stop> <stop offset="100%" stop-color="#3f51b1"></stop></linearGradient><linearGradient id="96" x1="0%" y1="0%" x2="100%" y2="0%"><stop offset="0%" stop-color="#7873f5"></stop> <stop offset="100%" stop-color="#ec77ab"></stop></linearGradient><linearGradient id="97" x1="0%" y1="0%" x2="100%" y2="0%"><stop offset="0%" stop-color="#f9d423"></stop> <stop offset="100%" stop-color="#e14fad"></stop></linearGradient><linearGradient id="98" x1="0%" y1="0%" x2="100%" y2="0%"><stop offset="0%" stop-color="#009efd"></stop> <stop offset="100%" stop-color="#2af598"></stop></linearGradient><linearGradient id="99" x1="0%" y1="0%" x2="100%" y2="0%"><stop offset="0%" stop-color="#ffcc00"></stop> <stop offset="100%" stop-color="#00b140"></stop></linearGradient><linearGradient id="100" x1="0%" y1="0%" x2="100%" y2="0%"><stop offset="0%" stop-color="#d51007"></stop> <stop offset="100%" stop-color="#ff8177"></stop></linearGradient><linearGradient id="102" x1="0%" y1="0%" x2="100%" y2="0%"><stop offset="0%" stop-color="#a2b6df"></stop> <stop offset="100%" stop-color="#0c3483"></stop></linearGradient><linearGradient id="103" x1="0%" y1="0%" x2="100%" y2="0%"><stop offset="0%" stop-color="#7ac5d8"></stop> <stop offset="100%" stop-color="#eea2a2"></stop></linearGradient><linearGradient id="104" x1="0%" y1="0%" x2="100%" y2="0%"><stop offset="0%" stop-color="#00ecbc"></stop> <stop offset="100%" stop-color="#007adf"></stop></linearGradient><linearGradient id="105" x1="0%" y1="0%" x2="100%" y2="0%"><stop offset="0%" stop-color="#b88746"></stop> <stop offset="100%" stop-color="#fdf5a6"></stop></linearGradient></defs><g class="imagesvg isNoFont" transform="translate(140.00000000081016,99.28534507751465)"><g><rect fill="#333" fill-opacity="0" stroke-width="2" x="0" y="0" width="60" height="51.42930613294476" class="image-rect"></rect> <svg x="0" y="0" width="60" height="51.42930613294476" filtersec="colorsb6349105270" class="image-svg-svg primary" style="overflow: visible;"><svg xmlns="http://www.w3.org/2000/svg" viewBox="0.011443018913269043 -0.01000213623046875 137.94578552246094 118.24071502685547"><path d="M104.72 97.66v-19c0-.81.11-1.5-1.16-1a86.07 86.07 0 0 1-18.15 5.23c-1 .16-1.42.54-1.41 1.64q.06 16.13 0 32.24c0 1.1.3 1.44 1.42 1.43 5.85-.06 11.7-.08 17.55 0 1.44 0 1.78-.45 1.77-1.78-.05-6.22-.03-12.49-.02-18.76zM52.08 82.83a80.64 80.64 0 0 1-17.37-5c-1.28-.52-1.48-.19-1.47 1v37.8c0 1.22.3 1.62 1.58 1.6 5.74-.07 11.48-.08 17.23 0 1.47 0 1.83-.41 1.82-1.83q-.07-15.72 0-31.45c.02-1.4-.48-1.9-1.79-2.12z" fill="#fcb413"></path><path d="M137.53 47.2q-6.85-6-13.69-12.14c-.71-.64-1.19-.56-1.81.15a64.64 64.64 0 0 1-8.81 8.13 57.84 57.84 0 0 1-8.51 5.66V1.78C104.75.38 104.37 0 103 0c-5.75.07-11.5.08-17.24 0C84.27 0 84 .47 84 1.81c.07 5.27 0 10.55 0 15.82v37.48c0 1.41-.46 1.92-1.76 2.14-1.77.29-3.54.49-5.32.72a71.71 71.71 0 0 1-21.24-.7c-1.58-.27-1.94-1-1.93-2.47 0-17.6 0-35.21.07-52.81 0-1.65-.47-2-2.05-2-5.52.11-11.12.1-16.7.01-1.5 0-1.84.46-1.84 1.88.05 15 0 30.05 0 45.07a4.23 4.23 0 0 1-.11 1.81c-.35.17-.54-.07-.75-.2A71.16 71.16 0 0 1 15.9 35.28c-.66-.72-1.11-.88-1.93-.14Q7.41 41.08.75 46.89c-.92.8-1 1.24-.13 2.21A92.63 92.63 0 0 0 52.5 77.51a90.08 90.08 0 0 0 42.81-2.34 88.32 88.32 0 0 0 30.1-15.41l2.51-1.95a84.8 84.8 0 0 0 9.65-9 1 1 0 0 0-.04-1.61z" fill="#333"></path></svg></svg> </g></g><defs v-gra="od"></defs></g></svg>